<svg id="Layer_5" enable-background="new 0 0 64 64" height="512" viewBox="0 0 64 64" width="512" xmlns="http://www.w3.org/2000/svg" xmlns:xlink="http://www.w3.org/1999/xlink"><linearGradient id="SVGID_1_" gradientUnits="userSpaceOnUse" x1="42.108" x2="42.108" y1="43.001" y2=".784"><stop offset="0" stop-color="#274a9c"/><stop offset="1" stop-color="#0bb1d3"/></linearGradient><path d="m17 27c.552 0 1 .448 1 1s-.448 1-1 1-1-.448-1-1 .448-1 1-1zm-16 .667c0-6.434 5.233-11.667 11.667-11.667h3.364c.833-.62 1.854-1 2.969-1 2.048 0 3.807 1.24 4.58 3.006l5.42-5.42 9 9 14.086-14.086-4.167-4.167 15.298-2.549-2.55 15.297-3.667-3.667v50.586h-27.986-18.897c-1.631 0-3.169-.64-4.331-1.8-1.165-1.166-1.786-2.666-1.786-4.26v-11.878c0-2.731 1.566-5.151 4.007-6.307l-2.34-1.755c-2.923-2.192-4.667-5.681-4.667-9.333zm28.014 33.333c.544 0 .986-.444.986-.991v-2.009c0-.551-.448-1-1-1h-1.618l-.741-1.482c-.27-.541-1.074-.671-1.501-.244l-1.14 1.14v4.586h3zm-17.014-13.523v7.523h8v-6.615c0-2.643-1.477-4.993-3.796-6.175l-2.204 2.204-4.241-4.241-.616.247c-.435.174-.829.409-1.187.682l.525.301c2.17 1.244 3.519 3.572 3.519 6.074zm11.239-6.3-.214.435c-.187.381-.347.766-.477 1.146l-.156.456-1.655.592c.805 1.353 1.263 2.921 1.263 4.579v6.615h.586l1.14-1.14c.547-.547 1.304-.86 2.077-.86 1.119 0 2.126.622 2.627 1.624l.188.376h.382c1.302 0 2.402.839 2.816 2h2.476l.491-1.392.458-.157c.385-.132.771-.292 1.146-.477l.436-.214 1.335.638 3.242-3.242-.639-1.334.214-.435c.187-.381.347-.766.477-1.146l.156-.458 1.392-.491v-4.585l-1.393-.491-.156-.458c-.13-.38-.29-.765-.477-1.146l-.214-.435.639-1.334-3.242-3.242-1.335.638-.436-.214c-.375-.185-.761-.345-1.146-.477l-.458-.157-.49-1.391h-4.584l-.491 1.392-.458.157c-.385.132-.771.292-1.146.477l-.436.214-1.335-.638-3.242 3.242zm19.761 9.592c-.008.018-.015.036-.022.054l.022.047zm0-9.639-.022.047c.008.018.015.036.022.054zm-11.182 19.87h5.182v-3.937l-.178-.085c-.155.069-.313.134-.471.196l-.643 1.826h-3.708v1.009c0 .349-.071.679-.182.991zm7.182 0h4v-7.616l-4 4.001zm6 0h4v-41.586l-4 4v18.878 7.415zm-2-35.586-4 4v5.201l4 4.001zm-6 4-4-4v7.586h2.708l.644 1.826c.158.062.315.127.471.196l.177-.085zm-6-6-2-2-6.802 6.802c.459 1.402.802 3.028.802 4.784v.721l-3.002 1c-.034 1.129-.489 2.185-1.291 2.986-.487.487-1.074.828-1.707 1.043v1.601c.932.457 1.745 1.076 2.447 1.793l1.378-.493c.062-.158.127-.315.197-.473l-.836-1.748 5.242-5.244 1.749.836c.155-.069.313-.134.471-.196l.644-1.826h2.708zm-12.527 1.586h-1.473-5c-.552 0-1 .449-1 1v3h-1c-.552 0-1 .449-1 1v.171c0 .267.104.519.293.708l.828.828c.566.566.879 1.32.879 2.122v4.757l3 3 1-1v-1.586h-2v-2h2.586c.645 0 1.251-.251 1.707-.708.456-.455.707-1.061.707-1.706v-1.307l2.979-.993c-.208-3.426-1.847-6.27-2.506-7.286zm-8.357 36h11.884v-4h-10.586c-.645 0-1.251.251-1.707.708l-1.414-1.415c.487-.487 1.074-.828 1.707-1.043v-7.774c0-1.787-.963-3.449-2.514-4.338l-.856-.49c-.399.723-.63 1.545-.63 2.414l-.001 11.878c0 1.061.413 2.058 1.163 2.808.821.821 1.858 1.252 2.954 1.252zm44.884 0v-47.586l-4 4v43.586zm-26-45.586-5.047 5.047c-.184 1.976-1.508 3.61-3.319 4.242.236.411.501.91.766 1.483l7.6-7.6 9 9 18.5-18.5 2.833 2.833 1.45-8.703-8.702 1.451 2.833 2.833-16.914 16.914zm-26 12.253c0 3.026 1.445 5.917 3.866 7.734l2.134 1.6v-3.172c0-.267-.104-.519-.293-.708l-.828-.828c-.567-.566-.879-1.32-.879-2.122v-.171c0-1.304.836-2.416 2-2.829v-1.171c0-1.654 1.346-3 3-3h5 2c1.654 0 3-1.346 3-3s-1.346-3-3-3-3 1.346-3 3h-2c0-.712.154-1.386.424-2h-1.757c-5.33 0-9.667 4.336-9.667 9.667zm21 18.333c0-4.411 3.589-8 8-8s8 3.589 8 8-3.589 8-8 8-8-3.589-8-8zm2 0c0 3.309 2.691 6 6 6s6-2.691 6-6-2.691-6-6-6-6 2.691-6 6zm2 0c0-2.206 1.794-4 4-4s4 1.794 4 4-1.794 4-4 4-4-1.794-4-4zm2 0c0 1.103.897 2 2 2s2-.897 2-2-.897-2-2-2-2 .897-2 2z" fill="url(#SVGID_1_)"/></svg>